<svg width="65" height="92" viewBox="0 0 65 92" fill="none" xmlns="http://www.w3.org/2000/svg">
<path d="M52.54 45.9394H46.8143V54.5279H38.2257V60.2536H52.54V45.9394ZM18.1858 37.3509H26.7743V31.6252H12.4601V45.9394H18.1858V37.3509ZM58.2657 20.1738H6.73439C5.21584 20.1738 3.75949 20.7771 2.68571 21.8508C1.61193 22.9246 1.00869 24.381 1.00869 25.8995V65.9793C1.00869 67.4979 1.61193 68.9542 2.68571 70.028C3.75949 71.1017 5.21584 71.705 6.73439 71.705H58.2657C59.7842 71.705 61.2406 71.1017 62.3143 70.028C63.3881 68.9542 63.9914 67.4979 63.9914 65.9793V25.8995C63.9914 24.381 63.3881 22.9246 62.3143 21.8508C61.2406 20.7771 59.7842 20.1738 58.2657 20.1738ZM58.2657 65.9793H6.73439V25.8995H58.2657V65.9793Z" fill="#03D6F3"/>
</svg>
