<svg width="171" height="81" viewBox="0 0 171 81" fill="none" xmlns="http://www.w3.org/2000/svg">
<g clip-path="url(#clip0_14_529)">
<path d="M37.151 30.1834C35.926 30.7118 34.5929 31.0921 33.2198 31.2402C34.6454 30.3933 35.713 29.0553 36.2223 27.4772C34.8845 28.273 33.419 28.831 31.8907 29.1265C31.252 28.4437 30.4795 27.8997 29.6213 27.5284C28.7631 27.1572 27.8377 26.9667 26.9027 26.9688C23.1196 26.9688 20.0772 30.0353 20.0772 33.7983C20.0772 34.3267 20.1412 34.8552 20.2453 35.3636C14.5807 35.0673 9.5286 32.3611 6.16987 28.2178C5.55788 29.2631 5.23717 30.4533 5.24112 31.6646C5.24112 34.0345 6.44609 36.1242 8.28359 37.3532C7.20073 37.3105 6.14322 37.0129 5.19708 36.4845V36.5686C5.19708 39.8872 7.54299 42.6375 10.6695 43.27C10.0825 43.4225 9.47858 43.5005 8.87206 43.5022C8.4277 43.5022 8.00736 43.4581 7.58302 43.3981C8.44772 46.1043 10.9658 48.0699 13.9642 48.1339C11.6183 49.9714 8.67991 51.0523 5.48932 51.0523C4.91685 51.0523 4.38843 51.0323 3.83998 50.9682C6.86644 52.9098 10.4573 54.0307 14.3245 54.0307C26.8787 54.0307 33.7482 43.6303 33.7482 34.603C33.7482 34.3067 33.7482 34.0105 33.7282 33.7142C35.0573 32.7414 36.2223 31.5365 37.151 30.1834Z" fill="white"/>
<path d="M100.227 24.4869H70.7627C70.0541 24.4869 69.4816 25.0594 69.4816 25.7679V55.2318C69.4816 55.9404 70.0541 56.5129 70.7627 56.5129H100.227C100.935 56.5129 101.508 55.9404 101.508 55.2318V25.7679C101.508 25.0594 100.935 24.4869 100.227 24.4869ZM96.5276 33.8345H93.9695C91.9639 33.8345 91.5756 34.7873 91.5756 36.1884V39.2749H96.3635L95.739 44.1068H91.5756V56.5129H86.5835V44.1108H82.4081V39.2749H86.5835V35.712C86.5835 31.5766 89.1096 29.3228 92.8006 29.3228C94.57 29.3228 96.0872 29.4549 96.5316 29.515V33.8345H96.5276Z" fill="white"/>
<path d="M165.225 24.4869H135.761C135.052 24.4869 134.48 25.0594 134.48 25.7679V55.2318C134.48 55.9404 135.052 56.5129 135.761 56.5129H165.225C165.934 56.5129 166.506 55.9404 166.506 55.2318V25.7679C166.506 25.0594 165.934 24.4869 165.225 24.4869ZM143.98 51.777H139.228V36.4926H143.98V51.777ZM141.606 34.4029C141.061 34.4029 140.529 34.2414 140.076 33.9388C139.623 33.6361 139.27 33.206 139.061 32.7027C138.853 32.1994 138.798 31.6457 138.904 31.1114C139.011 30.5771 139.273 30.0864 139.658 29.7012C140.043 29.316 140.534 29.0537 141.068 28.9474C141.603 28.8411 142.157 28.8957 142.66 29.1041C143.163 29.3126 143.593 29.6656 143.896 30.1185C144.199 30.5715 144.36 31.104 144.36 31.6487C144.356 33.1699 143.123 34.4029 141.606 34.4029ZM161.77 51.777H157.022V44.343C157.022 42.5696 156.99 40.2917 154.552 40.2917C152.082 40.2917 151.702 42.2213 151.702 44.2149V51.777H146.958V36.4926H151.514V38.5823H151.578C152.21 37.3814 153.76 36.1123 156.074 36.1123C160.885 36.1123 161.77 39.2789 161.77 43.3942V51.777Z" fill="white"/>
</g>
<defs>
<clipPath id="clip0_14_529">
<rect width="170.96" height="80.9866" fill="white"/>
</clipPath>
</defs>
</svg>
